<svg xmlns="http://www.w3.org/2000/svg" viewBox="0 0 512 512"><path d="M290.09,489V470.35h37.68V155.79c0-16.78-6.19-29.35-17.89-36.36A37.44,37.44,0,0,0,305,117l-2.81-.86a12,12,0,0,0-9.34,1,36.53,36.53,0,0,0-8.35-2.25c-1.07-.17-2.15-.36-3.23-.56-1.59-.29-3.46-.64-5.31-1-4.18-.87-7.9-1.8-11.4-2.86l-1.74-.52v-4.16a30.84,30.84,0,0,0,17.22-25.66h.56A7.34,7.34,0,0,0,288,72.75v-4a7.34,7.34,0,0,0-7.33-7.33h-.48V59.78h0V49.93a30.91,30.91,0,0,0-61.81,0v9.85h0v1.65h-.48a7.34,7.34,0,0,0-7.33,7.33v4a7.34,7.34,0,0,0,7.33,7.33h.56a30.37,30.37,0,0,0,.42,3.4,30.79,30.79,0,0,0,16.45,22.08v4.34l-1.73.51a123.87,123.87,0,0,1-18.71,4.26A44.94,44.94,0,0,0,176,159.2v99.15a24.27,24.27,0,0,0,8.81,18.75l.83.69V459h17.29a50.29,50.29,0,0,0,22.89,10.56V489H150.27v4H361.73v-4ZM280.14,65.43h.48A3.33,3.33,0,0,1,284,68.76v4a3.34,3.34,0,0,1-3.33,3.33h-.48ZM218.33,76.08h-.48a3.34,3.34,0,0,1-3.33-3.33v-4a3.33,3.33,0,0,1,3.33-3.33h.48Zm75.3,390.27H282.55V427.17a104.54,104.54,0,0,0,11.08-13.46Zm14.6,0h-10.6V407.44a104.86,104.86,0,0,0,10.6-24.69Zm15.54,0H312.23V354.07h0V257.51l11.54-13.8ZM222.33,49.93a26.91,26.91,0,0,1,53.81,0v.22a13.55,13.55,0,0,0-9.61-4h-5.69a13.62,13.62,0,0,0-11.61,6.51,13.61,13.61,0,0,0-11.6-6.51h-5.69a13.56,13.56,0,0,0-9.61,4Zm.43,32.83a27.14,27.14,0,0,1-.43-4.68V59.78c0-.33,0-.67,0-1a9.58,9.58,0,0,1,9.56-8.62h5.69a9.62,9.62,0,0,1,9.6,9.61h4a9.62,9.62,0,0,1,9.61-9.61h5.69a9.62,9.62,0,0,1,9.61,9.61V78.07a26.9,26.9,0,0,1-53.38,4.69Zm36.08,24.6v3a9.78,9.78,0,1,1-19.56,0v-3.1a30.88,30.88,0,0,0,19.56.12Zm-43.46,11.27a126.6,126.6,0,0,0,19.31-4.39l1.08-.32a13.76,13.76,0,0,0,26.58,0l1.08.32c2.92.88,6,1.68,9.34,2.42-5.47,11.23-19.19,18.9-34.3,18.9-13.26,0-25.21-5.6-31.82-14.74A41.07,41.07,0,0,1,215.38,118.63Zm-12.48,3.8c7.25,10.61,20.68,17.14,35.57,17.14,17.28,0,32.43-8.79,38.31-22l1.91.37c-3.35,20.17-25.9,35.72-52.36,35.72-15.93,0-30.69-5.46-40.8-15A41.22,41.22,0,0,1,202.9,122.43ZM180,159.2a41.09,41.09,0,0,1,3.64-16.89c10.8,9.76,26.19,15.31,42.71,15.31,14.26,0,27.88-4.19,38.36-11.78,9.89-7.17,16.2-16.77,17.94-27.23l1.24.22a38.42,38.42,0,0,1,5.28,1.21,36.37,36.37,0,0,0-4.84,6.27c-1.24,2-2.37,4-3.36,5.77-.59,1-1.14,2-1.66,2.93l-46.77,79.46a33.28,33.28,0,0,1-6.61,7.69l0,0,0,0a11.24,11.24,0,0,0-3,2.31l-.42.27c-.66.44-1.36.87-2.07,1.27a33.43,33.43,0,0,1-12.4,4l-1,.09-.13-.11-.11.13-.55.05c-.67,0-1.36.07-2.13.07a27.89,27.89,0,0,0-19.85,8.21,28.5,28.5,0,0,0-4.22,5.38Zm55.29,120.13a6.14,6.14,0,0,0,3.18,2.5v21.91l-22.19-22.18a53.89,53.89,0,0,1,5.79-7.43c.26-.29.56-.58.83-.87l2.33,1.28A86.08,86.08,0,0,0,235.27,279.33Zm-9.37-9a55.65,55.65,0,0,1,12.1-8.19l5.81,5.21h12.78a16.31,16.31,0,0,0-2.35,2.56H240.68a6.63,6.63,0,0,0-3.8,1.22,6,6,0,0,0-2.4,3.54c-2-.88-4.45-2.1-7.38-3.68Zm-11.77,14.73,24.32,24.32v21.36l-30.08-30.09A55,55,0,0,1,214.13,285.08ZM238,384.36l-30.83-30.83V332.17l31.26,31.26v14.66A47,47,0,0,1,238,384.36Zm-30.83-57.85V312a55.21,55.21,0,0,1,.39-6.43l30.87,30.88v21.35ZM202.61,411c.25-.55.47-1.1.7-1.66l10.57,10.57a47.63,47.63,0,0,1-21.24,6A52.43,52.43,0,0,0,202.61,411Zm14.77,6.76-12.59-12.59a52.61,52.61,0,0,0,2.4-15.71v-3.27l21.22,21.22A47.8,47.8,0,0,1,217.38,417.76Zm13.38-13.65-23.57-23.57V359.18l29.95,30A47,47,0,0,1,230.76,404.11Zm9.69-125.93a2.13,2.13,0,0,1-1.95-1.25,2.29,2.29,0,0,1-.17-1,2,2,0,0,1,.86-1.51,2.64,2.64,0,0,1,1.49-.48h15.75L257,273a11.92,11.92,0,0,1,10.1-5.61h8.74v10.81Zm26.66-14.81H245.35l-5.67-5.09-20.21-17.39a26.63,26.63,0,0,1,5.13-6.23h54.55a23.45,23.45,0,0,1,8.06,15.23L276.7,263.37Zm-50.72-25.12L211,233.62a37.89,37.89,0,0,0,9-2.92,11.5,11.5,0,0,0-.07,1.18v1.74A29.83,29.83,0,0,0,216.39,238.25Zm7.68-7.59a6.55,6.55,0,0,1,1.32-3l.06-.09s0,0,.05-.07c.94-.65,1.79-1.3,2.59-2a6.94,6.94,0,0,1,2.77-.57h42a6.89,6.89,0,0,1,6.78,5.67Zm-38.45,41.75A20.27,20.27,0,0,1,180,258.35a24,24,0,0,1,24.07-24.07c.55,0,1.06,0,1.56,0l29.15,25.09a59.35,59.35,0,0,0-13.64,10c-.7.68-1.38,1.38-2,2.07a57.25,57.25,0,0,0-7.1,9.38,59,59,0,0,0-7.79,20.15,59.73,59.73,0,0,0-1,11v77.49a48.74,48.74,0,0,1-2.57,15.64,43.76,43.76,0,0,1-1.66,4.27,48.61,48.61,0,0,1-9.34,13.92V265.15h-4Zm32.65,190.92a46.41,46.41,0,0,1-8.64-4.37c2.87-.06,5.76-.24,8.64-.54Zm-11-8.33H189.62V430h.93a51.84,51.84,0,0,0,42.12-21.59,51.24,51.24,0,0,0,8.64-19.47,52.5,52.5,0,0,0,1.14-10.84V282.18h33.4v83.3h4V265.84l20.72-26.6V188h-4v49.86l-6,7.75a27.68,27.68,0,0,0-6.74-12v-1.74A10.89,10.89,0,0,0,272.9,221H232.7a37.48,37.48,0,0,0,3.24-4.45L282.73,137c.54-.92,1.11-1.94,1.71-3,1-1.83,2.07-3.72,3.25-5.58a25.81,25.81,0,0,1,6.31-7.34l.17-.1a8,8,0,0,1,6.89-1.06l2.51.76a34.5,34.5,0,0,1,4.25,2.15c13.18,7.9,15.95,22.26,15.95,32.93v81.69L290.4,277.37l3.06,2.57,14.77-17.65v91.78a101.08,101.08,0,0,1-58.66,91.67,98.83,98.83,0,0,1-14.77,5.47,101.06,101.06,0,0,1-14.78,3A102.71,102.71,0,0,1,207.3,455Zm71.25-23.92v35.27H267.48V440A105.63,105.63,0,0,0,278.55,431.08Zm-15.07,11.6v23.67H252.41V448.81A104.57,104.57,0,0,0,263.48,442.68Zm-15.07,7.94v15.73H237.34V454.62A103.63,103.63,0,0,0,248.41,450.62Zm-26.14,14v-6.72a107.74,107.74,0,0,0,11.07-2.19v10.59A45.75,45.75,0,0,1,222.27,464.64ZM240.87,489H229.8V470.1c1.61.16,3.22.25,4.84.25h6.23ZM271,489H244.87V470.35H271Zm15.07,0H275V470.35h11.07Z"/></svg>